<?xml version="1.0" standalone="no"?>
<!DOCTYPE svg PUBLIC "-//W3C//DTD SVG 20010904//EN"
 "http://www.w3.org/TR/2001/REC-SVG-20010904/DTD/svg10.dtd">
<svg version="1.0" xmlns="http://www.w3.org/2000/svg"
 width="1024.000000pt" height="277.000000pt" viewBox="0 0 1024.000000 277.000000"
 preserveAspectRatio="xMidYMid meet">

<g transform="translate(0.000000,277.000000) scale(0.100000,-0.100000)"
fill="#000000" stroke="none">
<path d="M0 1399 l0 -1371 27 7 c94 23 510 91 773 125 190 25 202 28 290 86
74 48 120 100 162 184 51 103 60 175 56 460 -4 245 -5 258 -31 337 -45 136
-138 250 -244 301 -38 18 -41 28 -13 37 45 14 140 89 169 132 73 110 100 277
81 494 -23 271 -128 439 -334 539 l-82 40 -427 0 -427 0 0 -1371z m720 1014
c56 -24 105 -79 122 -135 8 -28 13 -102 13 -209 0 -164 0 -166 -30 -224 -25
-49 -39 -63 -80 -84 -45 -24 -63 -26 -187 -29 l-138 -4 0 357 0 358 128 -5
c98 -4 137 -9 172 -25z m23 -1079 c61 -21 111 -77 134 -151 26 -86 26 -474 0
-550 -20 -58 -66 -105 -119 -122 -26 -8 -262 -31 -325 -31 -10 0 -13 94 -13
435 l0 435 138 0 c100 0 151 -4 185 -16z"/>
<path d="M1717 2283 c-129 -812 -318 -2045 -315 -2049 4 -3 350 26 355 30 1 1
16 103 34 228 18 125 35 232 39 238 7 11 155 23 396 33 l100 4 34 -230 34
-229 55 6 c31 3 121 9 200 12 l143 7 -5 31 c-23 126 -378 2259 -387 2324 l-12
82 -297 0 -297 0 -77 -487z m454 -534 c49 -332 92 -618 95 -636 8 -41 5 -42
-214 -45 l-174 -3 6 40 c36 251 178 1216 182 1234 3 13 7 21 10 18 3 -3 46
-277 95 -608z"/>
<path d="M2904 2168 c3 -332 9 -879 12 -1216 l7 -614 81 6 c86 7 442 21 789
32 l207 7 0 161 0 161 -207 -6 c-115 -4 -269 -7 -344 -8 l-136 -1 -8 366 c-4
201 -5 367 -3 370 3 2 127 7 276 11 l272 6 0 162 0 162 -187 6 c-104 4 -227 7
-275 7 l-88 0 0 108 c0 60 -3 211 -7 337 l-6 228 346 -7 347 -8 0 166 0 166
-541 0 -542 0 7 -602z"/>
<path d="M4124 1578 c4 -656 8 -1193 9 -1193 1 0 89 1 195 3 l192 4 0 494 0
494 101 0 c125 0 177 -13 227 -56 72 -61 75 -75 83 -464 6 -332 9 -366 31
-438 l10 -32 198 0 198 0 -16 43 c-12 33 -17 115 -23 392 -5 251 -11 370 -22
421 -29 135 -102 242 -202 295 -25 13 -45 26 -45 29 0 3 23 19 51 35 96 56
163 155 190 280 21 97 14 442 -11 541 -45 175 -144 272 -331 324 -68 18 -103
20 -458 20 l-384 0 7 -1192z m689 848 c47 -19 84 -68 97 -128 8 -34 11 -124 8
-248 -3 -182 -5 -198 -26 -235 -13 -22 -37 -50 -55 -62 -38 -26 -132 -43 -238
-43 l-76 0 -6 107 c-4 58 -7 222 -7 365 l0 258 135 0 c92 0 146 -4 168 -14z"/>
<path d="M5480 1611 c0 -637 3 -1173 6 -1190 l7 -31 209 0 210 0 -4 495 -3
495 278 0 277 0 0 165 0 165 -280 0 -280 0 0 365 0 365 356 0 357 0 -7 53 c-3
28 -6 103 -6 165 l0 112 -560 0 -560 0 0 -1159z"/>
<path d="M6735 1638 c3 -623 8 -1165 11 -1204 l5 -70 302 -13 c166 -7 403 -19
527 -27 124 -7 246 -14 273 -14 l47 0 0 169 0 169 -42 5 c-24 4 -151 11 -283
17 -132 6 -277 13 -322 16 l-83 6 0 332 c0 183 -3 651 -7 1039 l-6 707 -214 0
-214 0 6 -1132z"/>
<path d="M8036 1538 c3 -678 9 -1236 13 -1239 3 -4 80 -12 171 -18 91 -6 184
-14 208 -17 l42 -6 0 429 c0 236 -3 802 -7 1256 l-6 827 -214 0 -214 0 7
-1232z"/>
<path d="M8610 2766 c0 -2 104 -296 230 -654 127 -358 230 -654 230 -659 0 -5
-103 -276 -230 -603 -126 -327 -227 -596 -225 -598 2 -3 95 -14 205 -25 155
-15 204 -17 209 -8 4 6 81 212 171 456 90 245 166 445 171 445 4 0 83 -226
176 -502 l168 -503 168 -27 c92 -15 208 -36 258 -47 60 -12 89 -15 86 -7 -2 6
-115 325 -252 708 l-248 697 238 623 c130 343 245 642 256 666 l18 42 -218 0
c-216 0 -218 0 -227 -22 -6 -13 -89 -238 -185 -500 -96 -263 -178 -476 -183
-475 -6 2 -84 227 -175 500 l-166 497 -237 0 c-131 0 -238 -2 -238 -4z"/>
</g>
</svg>
